<svg width="133" height="40" viewBox="0 0 133 40" fill="none" xmlns="http://www.w3.org/2000/svg">
<path d="M26.2025 0.384547C26.0135 0.207103 25.7171 0.218932 25.542 0.410572C25.367 0.602213 25.3787 0.902686 25.5677 1.08013L33.1177 8.17792C33.3068 8.35536 33.6032 8.34354 33.7782 8.15189C33.9533 7.96025 33.9416 7.65978 33.7525 7.48234L26.2025 0.384547Z" fill="#48B649"/>
<path d="M26.3092 25.2789H25.5857V24.5455C25.5857 24.2852 25.3757 24.0723 25.119 24.0723C24.8622 24.0723 24.6522 24.2852 24.6522 24.5455V25.2789H23.9287C23.672 25.2789 23.4619 25.4918 23.4619 25.7521C23.4619 26.0123 23.672 26.2253 23.9287 26.2253H24.6522V26.9587C24.6522 27.219 24.8622 27.4319 25.119 27.4319C25.3757 27.4319 25.5857 27.219 25.5857 26.9587V26.2253H26.3092C26.566 26.2253 26.776 26.0123 26.776 25.7521C26.776 25.4918 26.5683 25.2789 26.3092 25.2789Z" fill="#48B649"/>
<path d="M12.0215 34.7636C12.0215 35.0262 12.2315 35.2368 12.4883 35.2368C12.745 35.2368 12.955 35.0262 12.955 34.7636V34.1484H12.0215V34.7636Z" fill="#48B649"/>
<path d="M12.0219 32.3521C12.0219 32.6123 12.232 32.8252 12.4887 32.8252C12.7454 32.8252 12.9555 32.6123 12.9555 32.3521V22.841C12.9555 22.8363 12.9532 22.8292 12.9532 22.8245C12.9532 22.8079 12.9508 22.7913 12.9485 22.7748C12.9462 22.7606 12.9438 22.7464 12.9415 22.7322C12.9368 22.718 12.9321 22.7038 12.9275 22.6896C12.9228 22.6754 12.9181 22.6612 12.9111 22.647C12.9041 22.6328 12.8971 22.621 12.8901 22.6068C12.8831 22.595 12.8761 22.5808 12.8668 22.5689C12.8575 22.5571 12.8481 22.5453 12.8365 22.5334C12.8271 22.5216 12.8178 22.5098 12.8061 22.5003C12.7944 22.4909 12.7851 22.4814 12.7734 22.4719C12.7594 22.4625 12.7478 22.4506 12.7338 22.4435C12.7291 22.4412 12.7244 22.4364 12.7198 22.4341C11.7605 21.8828 10.6823 21.1352 9.63674 20.132C9.50837 20.009 9.38001 19.8812 9.25398 19.7487L11.6042 17.7803C11.7956 17.9696 11.9893 18.1517 12.1853 18.3197C12.7314 18.8426 13.3476 19.2377 13.8307 19.5074C14.3185 19.7795 14.6732 19.9238 14.6872 19.9286C14.9276 20.0256 15.1983 19.9073 15.294 19.6659C15.3897 19.4223 15.273 19.1478 15.035 19.0508H15.0326C15.0046 19.039 14.6755 18.9017 14.2391 18.6557C13.8027 18.4096 13.2612 18.0524 12.8108 17.6194L12.7921 17.6028C12.0056 16.9215 11.2448 16.0697 10.6193 15.0216C10.1992 14.3118 9.83745 13.5074 9.57139 12.5752C9.30533 11.6454 9.13029 10.5855 9.09995 9.36705V9.36941C9.06727 8.0161 7.97503 6.94434 6.64706 6.94434H6.58871C5.25841 6.97509 4.20117 8.07762 4.20117 9.42146C4.20117 9.44276 4.20117 9.46405 4.20117 9.48535C4.27352 12.4711 5.01336 15.0003 6.11494 17.0374C6.93879 18.5634 7.95169 19.8126 8.99259 20.8134C10.0172 21.7976 11.0674 22.5429 12.0196 23.1107V32.3521H12.0219Z" fill="#1E1E1E"/>
<path d="M32.6353 20.8162C33.6762 19.813 34.6891 18.5662 35.5129 17.0402C36.6145 15.0031 37.3567 12.4763 37.4267 9.48812C37.4267 9.46683 37.4267 9.44554 37.4267 9.42424C37.4267 8.0804 36.3695 6.97787 35.0392 6.94238H34.9808C34.318 6.94238 33.7112 7.2121 33.2678 7.64743C32.8243 8.08276 32.5443 8.69317 32.5279 9.36746V9.3651C32.4953 10.5836 32.3226 11.6411 32.0565 12.5733C31.9981 12.7791 31.9281 12.985 31.8581 13.1932C31.7764 13.4369 31.6551 13.7279 31.5454 13.9763C31.4357 14.2224 31.3307 14.4329 31.2933 14.5039C31.2303 14.6222 31.1206 14.8162 31.0483 14.9534C30.8616 15.313 30.4508 15.8809 30.2431 16.1317C29.788 16.6877 29.3189 17.1845 28.8358 17.6009L28.8334 17.6033C28.39 17.9936 27.8229 18.3438 27.1857 18.597C26.5486 18.8477 25.8391 19.0015 25.1063 19.0015C24.4808 19.0015 23.8343 18.8903 23.1902 18.6372C22.9498 18.5425 22.679 18.6632 22.5857 18.9069C22.4923 19.1506 22.6114 19.425 22.8517 19.5197C23.6079 19.8178 24.3711 19.9479 25.1063 19.9479C25.9675 19.9479 26.7866 19.7705 27.5241 19.4795C28.2593 19.1884 28.9128 18.7839 29.4426 18.3225C29.6386 18.1522 29.83 17.97 30.019 17.7807L32.3739 19.7539C32.2479 19.8864 32.1195 20.0142 31.9911 20.1372C30.9456 21.1403 29.8673 21.888 28.9081 22.4392C28.9035 22.4416 28.8988 22.4463 28.8918 22.4511C28.8801 22.4582 28.8684 22.4676 28.8568 22.4771C28.8428 22.4866 28.8288 22.4984 28.8171 22.5102C28.8078 22.5197 28.8008 22.5268 28.7914 22.5362C28.7798 22.5504 28.7681 22.5646 28.7564 22.5788C28.7494 22.5883 28.7447 22.5977 28.7377 22.6072C28.7284 22.6238 28.7191 22.6403 28.7121 22.6569C28.7074 22.6664 28.7027 22.6782 28.7004 22.69C28.6934 22.7089 28.6887 22.7255 28.6841 22.7444C28.6817 22.7563 28.6794 22.7657 28.6794 22.7776C28.6771 22.7989 28.6747 22.8178 28.6724 22.8391C28.6724 22.8438 28.6701 22.8485 28.6701 22.8509V36.4172C28.6701 36.8667 28.4927 37.2689 28.201 37.5623C27.9092 37.8556 27.5148 38.0354 27.0714 38.0378L27.02 38.0402H27.0177C26.9407 38.0473 25.2043 38.22 14.6109 38.7713C15.5771 34.1151 15.8968 30.9992 15.8968 28.6995C15.8968 26.4566 15.5911 24.9826 15.311 23.6695C15.241 23.343 15.2083 23.0189 15.2083 22.7184C15.2083 22.4085 15.2457 22.1198 15.3134 21.8785C15.3811 21.6372 15.4814 21.4432 15.5934 21.3083C15.7615 21.1096 15.7358 20.8115 15.5398 20.6411C15.3437 20.4708 15.0496 20.4968 14.8816 20.6955C14.6622 20.9582 14.5105 21.2752 14.4148 21.6183C14.3191 21.9613 14.2748 22.3328 14.2725 22.7184C14.2725 23.0922 14.3145 23.4802 14.3962 23.8683C14.6739 25.1813 14.961 26.5418 14.961 28.6995C14.961 30.7933 14.6832 33.6466 13.8384 37.8651C13.6237 37.7563 13.4346 37.6048 13.2876 37.4132C13.0752 37.1364 12.9492 36.7933 12.9492 36.4148V35.9511C12.9492 35.6908 12.7391 35.4779 12.4824 35.4779C12.2257 35.4779 12.0156 35.6908 12.0156 35.9511V36.4148C12.0156 37.011 12.2163 37.5623 12.5547 37.9976C12.8348 38.3619 13.2129 38.6435 13.647 38.8115C13.6213 38.9321 13.598 39.0504 13.5723 39.1735C13.542 39.3178 13.5793 39.4692 13.6727 39.5804C13.766 39.6916 13.9084 39.7531 14.0531 39.746C19.8037 39.4479 23.0665 39.2563 24.8915 39.1403C26.6653 39.0268 27.0807 38.9842 27.118 38.9795C28.495 38.9534 29.6036 37.8178 29.6036 36.4148V23.1135C30.5605 22.5457 31.6084 21.7981 32.6353 20.8162Z" fill="#1E1E1E"/>
<path d="M24.7867 14.8381C24.9938 12.6148 23.3837 10.6423 21.1906 10.4324C18.9975 10.2225 17.0517 11.8547 16.8447 14.0779C16.6376 16.3012 18.2476 18.2737 20.4407 18.4836C22.6339 18.6935 24.5796 17.0614 24.7867 14.8381Z" fill="#1E1E1E"/>
<path d="M16.8935 33.4053C16.6345 33.4053 16.4268 33.6182 16.4268 33.8785C16.4268 34.1411 16.6368 34.3516 16.8935 34.3516C17.1526 34.3516 17.3603 34.1387 17.3603 33.8785C17.3626 33.6182 17.1526 33.4053 16.8935 33.4053Z" fill="#1E1E1E"/>
<path d="M17.6972 31.5503C17.6972 31.2877 17.4872 31.0771 17.2304 31.0771C16.9714 31.0771 16.7637 31.2901 16.7637 31.5503C16.7637 31.813 16.9737 32.0235 17.2304 32.0235C17.4872 32.0235 17.6972 31.813 17.6972 31.5503Z" fill="#1E1E1E"/>
<path d="M18.0341 29.2222C18.0341 28.9596 17.8241 28.749 17.5674 28.749C17.3083 28.749 17.1006 28.962 17.1006 29.2222C17.1006 29.4848 17.3106 29.6954 17.5674 29.6954C17.8241 29.6954 18.0341 29.4825 18.0341 29.2222Z" fill="#1E1E1E"/>
<path d="M17.5644 26.4189C17.3054 26.4189 17.0977 26.6319 17.0977 26.8921C17.0977 27.1547 17.3077 27.3653 17.5644 27.3653C17.8235 27.3653 18.0312 27.1524 18.0312 26.8921C18.0335 26.6319 17.8235 26.4189 17.5644 26.4189Z" fill="#1E1E1E"/>
<path d="M17.2285 25.0372C17.4876 25.0372 17.6953 24.8243 17.6953 24.564C17.6953 24.3014 17.4852 24.0908 17.2285 24.0908C16.9694 24.0908 16.7617 24.3038 16.7617 24.564C16.7617 24.8266 16.9718 25.0372 17.2285 25.0372Z" fill="#1E1E1E"/>
<path d="M16.3066 22.2359C16.3066 22.4985 16.5167 22.7091 16.7734 22.7091C17.0325 22.7091 17.2402 22.4962 17.2402 22.2359C17.2402 21.9733 17.0301 21.7627 16.7734 21.7627C16.5144 21.7603 16.3066 21.9733 16.3066 22.2359Z" fill="#1E1E1E"/>
<path d="M18.5146 19.0728C18.5146 19.3354 18.7247 19.546 18.9814 19.546C19.2405 19.546 19.4482 19.3331 19.4482 19.0728C19.4482 18.8102 19.2381 18.5996 18.9814 18.5996C18.7247 18.5973 18.5146 18.8102 18.5146 19.0728Z" fill="#1E1E1E"/>
<path d="M16.3066 20.378C16.5657 20.378 16.7734 20.1651 16.7734 19.9048C16.7734 19.6422 16.5634 19.4316 16.3066 19.4316C16.0476 19.4316 15.8399 19.6446 15.8399 19.9048C15.8375 20.1674 16.0476 20.378 16.3066 20.378Z" fill="#1E1E1E"/>
<path d="M18.205 19.8199C18.205 19.5572 17.995 19.3467 17.7383 19.3467C17.4792 19.3467 17.2715 19.5596 17.2715 19.8199C17.2715 20.0825 17.4815 20.2931 17.7383 20.2931C17.995 20.2931 18.205 20.0825 18.205 19.8199Z" fill="#1E1E1E"/>
<path d="M12.955 33.5308C12.955 33.2706 12.745 33.0576 12.4883 33.0576C12.2315 33.0576 12.0215 33.2706 12.0215 33.5308V34.1483H12.955V33.5308Z" fill="#1E1E1E"/>
<path d="M119.277 28.4152C119.967 27.6865 120.371 26.7047 120.371 25.5099C120.374 23.8585 119.718 22.7204 118.675 22.0083C117.631 21.2938 116.21 21.0004 114.667 20.998H109.523V37.1952H111.857V37.136V30.0454H114.14L118.173 37.1999H120.999L116.553 29.8017C117.657 29.5958 118.602 29.1274 119.277 28.4152ZM111.857 28.0414V23.0256H114.511C115.468 23.0256 116.35 23.1794 116.985 23.5651C117.62 23.9531 118.014 24.5611 118.014 25.5099C118.012 26.4586 117.617 27.0785 116.964 27.4783C116.31 27.8758 115.388 28.0414 114.352 28.0414H111.857Z" fill="#48B649"/>
<path d="M128.474 31.4627L132.351 26.3145H129.739L127.146 29.9745L124.579 26.3145H121.83L125.751 31.484L121.449 37.1977H124.131L127.102 33.0384L130.028 37.1977H132.799L128.474 31.4627Z" fill="#48B649"/>
<path d="M51.6651 31.3584C51.413 31.3584 51.21 31.5642 51.21 31.8198C51.21 32.0753 51.413 32.2811 51.6651 32.2811C51.9171 32.2811 52.1202 32.0753 52.1202 31.8198C52.1225 31.5642 51.9171 31.3584 51.6651 31.3584Z" fill="#48B649"/>
<path d="M53.3565 32.2792C53.6078 32.2792 53.8116 32.0726 53.8116 31.8178C53.8116 31.563 53.6078 31.3564 53.3565 31.3564C53.1051 31.3564 52.9014 31.563 52.9014 31.8178C52.9014 32.0726 53.1051 32.2792 53.3565 32.2792Z" fill="#48B649"/>
<path d="M55.0498 31.3564C54.7978 31.3564 54.5947 31.5623 54.5947 31.8178C54.5947 32.0733 54.7978 32.2792 55.0498 32.2792C55.3019 32.2792 55.5049 32.0733 55.5049 31.8178C55.5073 31.5623 55.3019 31.3564 55.0498 31.3564Z" fill="#48B649"/>
<path d="M45.2862 33.6512L45.2535 33.6985C44.1683 35.3381 42.4412 36.0573 40.6418 36.0573C36.5995 36.0573 34.1163 32.8207 34.114 29.0991C34.1163 25.3775 36.5762 22.1409 40.6418 22.1409C42.6372 22.1409 44.2126 23.2009 44.8731 24.2253L44.9058 24.2774L46.3457 23.2056L46.3131 23.1583C45.1998 21.5707 42.9663 20.5912 40.6208 20.5889C38.2426 20.5889 36.1608 21.4856 34.6741 22.9998C33.1874 24.5116 32.2959 26.6409 32.2959 29.0968C32.2959 31.5526 33.1688 33.6796 34.6484 35.1938C36.1281 36.708 38.2099 37.6046 40.6208 37.6046C43.4844 37.6046 45.5429 36.2087 46.6071 34.581L46.6398 34.5313L46.5908 34.4982L45.2862 33.6512Z" fill="#1E1E1E"/>
<path d="M65.9592 26.1797C64.5076 26.1821 63.0232 26.9959 62.3861 28.1813C62.3791 27.7128 62.3394 27.0196 62.2974 26.5062L62.2927 26.4518H62.2391H60.7197L60.7267 26.5157C60.7944 27.2396 60.8154 28.283 60.8154 28.8485V37.1978H62.4561V31.6876C62.4561 30.2799 62.8459 29.2554 63.427 28.5835C64.0105 27.9116 64.7876 27.5898 65.5788 27.5898C66.6641 27.5922 67.3502 27.9565 67.7773 28.5906C68.2044 29.227 68.3678 30.1474 68.3655 31.2546V37.1955H70.0062V30.6182C70.0062 29.2909 69.6724 28.1813 68.9979 27.4005C68.3211 26.6221 67.3035 26.1773 65.9592 26.1797Z" fill="#1E1E1E"/>
<path d="M80.1841 34.6728C79.5866 35.4772 78.6904 36.0332 77.3858 36.0356C76.1792 36.0356 75.199 35.5766 74.5198 34.8219C73.8383 34.0671 73.4579 33.0143 73.4579 31.8242C73.4579 30.6223 73.8453 29.5648 74.5315 28.8077C75.2176 28.0506 76.2025 27.5916 77.4091 27.5916C78.5317 27.5916 79.568 28.1736 80.0487 28.9709L80.0814 29.0253L80.1328 28.9875L81.3674 28.0884L81.3324 28.0411C80.4222 26.7966 78.8141 26.1791 77.3881 26.1768C75.6821 26.1768 74.2654 26.7777 73.2782 27.788C72.2886 28.7958 71.7285 30.2083 71.7285 31.8242C71.7285 33.4402 72.2886 34.8526 73.2782 35.8605C74.2678 36.8684 75.6844 37.4717 77.3881 37.4717C79.2179 37.4717 80.5155 36.7359 81.421 35.6097L81.4607 35.5624L80.2238 34.6279L80.1841 34.6728Z" fill="#1E1E1E"/>
<path d="M87.8279 26.1797C86.3226 26.1797 84.9853 26.783 84.0261 27.7909C83.0669 28.7988 82.4834 30.2112 82.4834 31.8272C82.4834 33.4431 83.0669 34.8556 84.0424 35.8635C85.0203 36.8713 86.3903 37.4746 87.9633 37.4746C89.702 37.4746 91.2704 36.8075 92.512 35.2034L92.547 35.156L91.3077 34.1694L91.2727 34.2262C90.7009 35.1631 89.5083 36.0385 87.961 36.0385C85.8628 36.0385 84.2665 34.3729 84.1918 32.2956H92.8761L92.8808 32.2412C92.9041 31.9668 92.9041 31.7136 92.9041 31.5101C92.9041 30.0456 92.47 28.7136 91.6158 27.7459C90.7593 26.7759 89.4873 26.1773 87.8279 26.1797ZM84.2175 30.9494C84.3808 29.1868 85.8442 27.5922 87.8256 27.5922C88.8992 27.5922 89.7277 27.9565 90.3018 28.5622C90.8643 29.156 91.1817 29.9865 91.2354 30.9494H84.2175Z" fill="#1E1E1E"/>
<path d="M99.1864 26.1797C97.7347 26.1797 96.4581 26.9983 95.8373 28.1789C95.8303 27.7104 95.7906 27.0196 95.7486 26.5062L95.7439 26.4518H94.1709L94.1779 26.5156C94.2456 27.2396 94.2666 28.283 94.2666 28.8485V37.1978H95.9073V31.6876C95.9073 30.2775 96.269 29.2885 96.8222 28.6521C97.3753 28.0156 98.1245 27.727 98.918 27.727C99.1164 27.727 99.3381 27.7436 99.5318 27.7696C99.7255 27.7956 99.8912 27.8287 99.9729 27.8595L100.041 27.8855L100.26 26.3074L100.211 26.2933C99.8889 26.201 99.5691 26.1797 99.1864 26.1797Z" fill="#1E1E1E"/>
<path d="M107.731 35.5251L107.652 35.5653C107.258 35.7664 106.77 35.8989 106.357 35.8989C105.904 35.8989 105.531 35.809 105.269 35.5369C105.008 35.2648 104.847 34.794 104.847 34.0062V27.8642H107.804V27.805V26.4517H104.847V23.4541H103.206V26.4517H101.033V27.8642H103.206V34.4368C103.206 35.6197 103.605 36.3508 104.154 36.7814C104.7 37.2096 105.386 37.335 105.953 37.335C106.653 37.335 107.223 37.2191 107.766 37.0133L107.806 36.9991L107.731 35.5251Z" fill="#1E1E1E"/>
<path d="M56.2097 26.2246H50.5104C49.7519 26.2246 49.0588 26.5393 48.564 27.0409C48.0669 27.5424 47.7565 28.2451 47.7588 29.014V34.6237C47.7588 35.3926 48.0692 36.0953 48.564 36.5969C49.0588 37.1008 49.7519 37.4155 50.5104 37.4131H56.2097C56.9682 37.4131 57.6614 37.0984 58.1562 36.5969C58.6533 36.0953 58.9637 35.3926 58.9613 34.6237V29.014C58.9613 28.2451 58.6509 27.5424 58.1562 27.0409C57.6614 26.5369 56.9682 26.2246 56.2097 26.2246ZM57.3276 34.6237C57.3276 34.9407 57.2039 35.2175 57.0009 35.4257C56.7955 35.6316 56.5201 35.7569 56.2097 35.7569H50.5104C50.1977 35.7569 49.9246 35.6316 49.7192 35.4257C49.5162 35.2175 49.3925 34.9383 49.3925 34.6237V29.014C49.3925 28.697 49.5162 28.4202 49.7192 28.212C49.9246 28.0062 50.2 27.8808 50.5104 27.8808H56.2097C56.5225 27.8808 56.7955 28.0062 57.0009 28.212C57.2039 28.4202 57.3276 28.6994 57.3276 29.014V34.6237Z" fill="#1E1E1E"/>
</svg>
